<svg xmlns="http://www.w3.org/2000/svg" width="1244" height="170" viewBox="0 0 1244 170" fill="none" role="img" aria-label="Binyam Mamo, Backend and applied AI">
<title>Binyam Mamo, Backend and applied AI</title>
<style>.fg{fill:#1f2328}.muted{fill:#59636e}.dim{fill:#818b98}.rule{fill:#d1d9e0}.track{fill:#d1d9e0}.accent{fill:#1a7f37}.blue{fill:#0969da}.c0{fill:#ebedf0}.c1{fill:#9be9a8}.c2{fill:#40c463}.c3{fill:#30a14e}.c4{fill:#216e39}.only-dark{display:none}@media (prefers-color-scheme:dark){.fg{fill:#e6edf3}.muted{fill:#9198a1}.dim{fill:#7d8590}.rule{fill:#30363d}.track{fill:#21262d}.accent{fill:#3fb950}.blue{fill:#4493f8}.c0{fill:#161b22}.c1{fill:#0e4429}.c2{fill:#006d32}.c3{fill:#26a641}.c4{fill:#39d353}.only-dark{display:inline}.only-light{display:none}}</style>
<defs><linearGradient id="panel" x1="0" y1="0" x2="1" y2="1">
    <stop offset="0" stop-color="#0d1117"/>
    <stop offset="0.55" stop-color="#0f1a17"/>
    <stop offset="1" stop-color="#0c1520"/>
  </linearGradient>
  <radialGradient id="glow" cx="0.8" cy="0.3" r="0.6">
    <stop offset="0" stop-color="#2ea043" stop-opacity="0.10"/>
    <stop offset="1" stop-color="#2ea043" stop-opacity="0"/>
  </radialGradient>
  <pattern id="dots" width="20" height="20" patternUnits="userSpaceOnUse">
    <circle cx="1.5" cy="1.5" r="1.2" fill="#ffffff" opacity="0.045"/>
  </pattern>
  <linearGradient id="dissolve" x1="0" x2="1">
    <stop offset="0" stop-color="#000"/>
    <stop offset="0.45" stop-color="#555"/>
    <stop offset="0.8" stop-color="#e6e6e6"/>
    <stop offset="1" stop-color="#fff"/>
  </linearGradient>
  <mask id="fadeLeft"><rect x="768" y="0" width="446" height="170" fill="url(#dissolve)"/></mask></defs>

<rect width="1244" height="170" rx="12" fill="url(#panel)"/>
<rect width="1244" height="170" rx="12" fill="url(#glow)"/>
<rect width="1244" height="170" rx="12" fill="url(#dots)"/>
<rect x="0.5" y="0.5" width="1243" height="169" rx="11.5" stroke="#30363d" stroke-opacity="0.6"/>
<g mask="url(#fadeLeft)"><rect x="768" y="35" width="11" height="11" rx="2.5" fill="#161b22" opacity="0.9">
  <animate attributeName="opacity" values="0;0.9" keyTimes="0;1" dur="0.5s" begin="0.00s"/></rect><rect x="768" y="50" width="11" height="11" rx="2.5" fill="#161b22" opacity="0.9">
  <animate attributeName="opacity" values="0;0.9" keyTimes="0;1" dur="0.5s" begin="0.00s"/></rect><rect x="768" y="65" width="11" height="11" rx="2.5" fill="#161b22" opacity="0.9">
  <animate attributeName="opacity" values="0;0.9" keyTimes="0;1" dur="0.5s" begin="0.00s"/></rect><rect x="768" y="80" width="11" height="11" rx="2.5" fill="#161b22" opacity="0.9">
  <animate attributeName="opacity" values="0;0.9" keyTimes="0;1" dur="0.5s" begin="0.00s"/></rect><rect x="768" y="95" width="11" height="11" rx="2.5" fill="#161b22" opacity="0.9">
  <animate attributeName="opacity" values="0;0.9" keyTimes="0;1" dur="0.5s" begin="0.00s"/></rect><rect x="768" y="110" width="11" height="11" rx="2.5" fill="#161b22" opacity="0.9">
  <animate attributeName="opacity" values="0;0.9" keyTimes="0;1" dur="0.5s" begin="0.00s"/></rect><rect x="768" y="125" width="11" height="11" rx="2.5" fill="#161b22" opacity="0.9">
  <animate attributeName="opacity" values="0;0.9" keyTimes="0;1" dur="0.5s" begin="0.00s"/></rect><rect x="783" y="35" width="11" height="11" rx="2.5" fill="#161b22" opacity="0.9">
  <animate attributeName="opacity" values="0;0.9" keyTimes="0;1" dur="0.5s" begin="0.02s"/></rect><rect x="783" y="50" width="11" height="11" rx="2.5" fill="#0e4429" opacity="0.9">
  <animate attributeName="opacity" values="0;0.9" keyTimes="0;1" dur="0.5s" begin="0.02s"/></rect><rect x="783" y="65" width="11" height="11" rx="2.5" fill="#0e4429" opacity="0.9">
  <animate attributeName="opacity" values="0;0.9" keyTimes="0;1" dur="0.5s" begin="0.02s"/></rect><rect x="783" y="80" width="11" height="11" rx="2.5" fill="#161b22" opacity="0.9">
  <animate attributeName="opacity" values="0;0.9" keyTimes="0;1" dur="0.5s" begin="0.02s"/></rect><rect x="783" y="95" width="11" height="11" rx="2.5" fill="#161b22" opacity="0.9">
  <animate attributeName="opacity" values="0;0.9" keyTimes="0;1" dur="0.5s" begin="0.02s"/></rect><rect x="783" y="110" width="11" height="11" rx="2.5" fill="#161b22" opacity="0.9">
  <animate attributeName="opacity" values="0;0.9" keyTimes="0;1" dur="0.5s" begin="0.02s"/></rect><rect x="783" y="125" width="11" height="11" rx="2.5" fill="#161b22" opacity="0.9">
  <animate attributeName="opacity" values="0;0.9" keyTimes="0;1" dur="0.5s" begin="0.02s"/></rect><rect x="798" y="35" width="11" height="11" rx="2.5" fill="#26a641" opacity="0.9">
  <animate attributeName="opacity" values="0;0.9" keyTimes="0;1" dur="0.5s" begin="0.04s"/></rect><rect x="798" y="50" width="11" height="11" rx="2.5" fill="#006d32" opacity="0.9">
  <animate attributeName="opacity" values="0;0.9" keyTimes="0;1" dur="0.5s" begin="0.04s"/></rect><rect x="798" y="65" width="11" height="11" rx="2.5" fill="#161b22" opacity="0.9">
  <animate attributeName="opacity" values="0;0.9" keyTimes="0;1" dur="0.5s" begin="0.04s"/></rect><rect x="798" y="80" width="11" height="11" rx="2.5" fill="#161b22" opacity="0.9">
  <animate attributeName="opacity" values="0;0.9" keyTimes="0;1" dur="0.5s" begin="0.04s"/></rect><rect x="798" y="95" width="11" height="11" rx="2.5" fill="#161b22" opacity="0.9">
  <animate attributeName="opacity" values="0;0.9" keyTimes="0;1" dur="0.5s" begin="0.04s"/></rect><rect x="798" y="110" width="11" height="11" rx="2.5" fill="#006d32" opacity="0.9">
  <animate attributeName="opacity" values="0;0.9" keyTimes="0;1" dur="0.5s" begin="0.04s"/></rect><rect x="798" y="125" width="11" height="11" rx="2.5" fill="#161b22" opacity="0.9">
  <animate attributeName="opacity" values="0;0.9" keyTimes="0;1" dur="0.5s" begin="0.04s"/></rect><rect x="813" y="35" width="11" height="11" rx="2.5" fill="#161b22" opacity="0.9">
  <animate attributeName="opacity" values="0;0.9" keyTimes="0;1" dur="0.5s" begin="0.06s"/></rect><rect x="813" y="50" width="11" height="11" rx="2.5" fill="#0e4429" opacity="0.9">
  <animate attributeName="opacity" values="0;0.9" keyTimes="0;1" dur="0.5s" begin="0.06s"/></rect><rect x="813" y="65" width="11" height="11" rx="2.5" fill="#161b22" opacity="0.9">
  <animate attributeName="opacity" values="0;0.9" keyTimes="0;1" dur="0.5s" begin="0.06s"/></rect><rect x="813" y="80" width="11" height="11" rx="2.5" fill="#161b22" opacity="0.9">
  <animate attributeName="opacity" values="0;0.9" keyTimes="0;1" dur="0.5s" begin="0.06s"/></rect><rect x="813" y="95" width="11" height="11" rx="2.5" fill="#006d32" opacity="0.9">
  <animate attributeName="opacity" values="0;0.9" keyTimes="0;1" dur="0.5s" begin="0.06s"/></rect><rect x="813" y="110" width="11" height="11" rx="2.5" fill="#161b22" opacity="0.9">
  <animate attributeName="opacity" values="0;0.9" keyTimes="0;1" dur="0.5s" begin="0.06s"/></rect><rect x="813" y="125" width="11" height="11" rx="2.5" fill="#161b22" opacity="0.9">
  <animate attributeName="opacity" values="0;0.9" keyTimes="0;1" dur="0.5s" begin="0.06s"/></rect><rect x="828" y="35" width="11" height="11" rx="2.5" fill="#0e4429" opacity="0.9">
  <animate attributeName="opacity" values="0;0.9" keyTimes="0;1" dur="0.5s" begin="0.08s"/></rect><rect x="828" y="50" width="11" height="11" rx="2.5" fill="#26a641" opacity="0.9">
  <animate attributeName="opacity" values="0;0.9" keyTimes="0;1" dur="0.5s" begin="0.08s"/></rect><rect x="828" y="65" width="11" height="11" rx="2.5" fill="#006d32" opacity="0.9">
  <animate attributeName="opacity" values="0;0.9" keyTimes="0;1" dur="0.5s" begin="0.08s"/></rect><rect x="828" y="80" width="11" height="11" rx="2.5" fill="#161b22" opacity="0.9">
  <animate attributeName="opacity" values="0;0.9" keyTimes="0;1" dur="0.5s" begin="0.08s"/></rect><rect x="828" y="95" width="11" height="11" rx="2.5" fill="#006d32" opacity="0.9">
  <animate attributeName="opacity" values="0;0.9" keyTimes="0;1" dur="0.5s" begin="0.08s"/></rect><rect x="828" y="110" width="11" height="11" rx="2.5" fill="#006d32" opacity="0.9">
  <animate attributeName="opacity" values="0;0.9" keyTimes="0;1" dur="0.5s" begin="0.08s"/></rect><rect x="828" y="125" width="11" height="11" rx="2.5" fill="#006d32" opacity="0.9">
  <animate attributeName="opacity" values="0;0.9" keyTimes="0;1" dur="0.5s" begin="0.08s"/></rect><rect x="843" y="35" width="11" height="11" rx="2.5" fill="#0e4429" opacity="0.9">
  <animate attributeName="opacity" values="0;0.9" keyTimes="0;1" dur="0.5s" begin="0.10s"/></rect><rect x="843" y="50" width="11" height="11" rx="2.5" fill="#006d32" opacity="0.9">
  <animate attributeName="opacity" values="0;0.9" keyTimes="0;1" dur="0.5s" begin="0.10s"/></rect><rect x="843" y="65" width="11" height="11" rx="2.5" fill="#0e4429" opacity="0.9">
  <animate attributeName="opacity" values="0;0.9" keyTimes="0;1" dur="0.5s" begin="0.10s"/></rect><rect x="843" y="80" width="11" height="11" rx="2.5" fill="#0e4429" opacity="0.9">
  <animate attributeName="opacity" values="0;0.9" keyTimes="0;1" dur="0.5s" begin="0.10s"/></rect><rect x="843" y="95" width="11" height="11" rx="2.5" fill="#161b22" opacity="0.9">
  <animate attributeName="opacity" values="0;0.9" keyTimes="0;1" dur="0.5s" begin="0.10s"/></rect><rect x="843" y="110" width="11" height="11" rx="2.5" fill="#006d32" opacity="0.9">
  <animate attributeName="opacity" values="0;0.9" keyTimes="0;1" dur="0.5s" begin="0.10s"/></rect><rect x="843" y="125" width="11" height="11" rx="2.5" fill="#161b22" opacity="0.9">
  <animate attributeName="opacity" values="0;0.9" keyTimes="0;1" dur="0.5s" begin="0.10s"/></rect><rect x="858" y="35" width="11" height="11" rx="2.5" fill="#161b22" opacity="0.9">
  <animate attributeName="opacity" values="0;0.9" keyTimes="0;1" dur="0.5s" begin="0.12s"/></rect><rect x="858" y="50" width="11" height="11" rx="2.5" fill="#161b22" opacity="0.9">
  <animate attributeName="opacity" values="0;0.9" keyTimes="0;1" dur="0.5s" begin="0.12s"/></rect><rect x="858" y="65" width="11" height="11" rx="2.5" fill="#161b22" opacity="0.9">
  <animate attributeName="opacity" values="0;0.9" keyTimes="0;1" dur="0.5s" begin="0.12s"/></rect><rect x="858" y="80" width="11" height="11" rx="2.5" fill="#161b22" opacity="0.9">
  <animate attributeName="opacity" values="0;0.9" keyTimes="0;1" dur="0.5s" begin="0.12s"/></rect><rect x="858" y="95" width="11" height="11" rx="2.5" fill="#161b22" opacity="0.9">
  <animate attributeName="opacity" values="0;0.9" keyTimes="0;1" dur="0.5s" begin="0.12s"/></rect><rect x="858" y="110" width="11" height="11" rx="2.5" fill="#161b22" opacity="0.9">
  <animate attributeName="opacity" values="0;0.9" keyTimes="0;1" dur="0.5s" begin="0.12s"/></rect><rect x="858" y="125" width="11" height="11" rx="2.5" fill="#161b22" opacity="0.9">
  <animate attributeName="opacity" values="0;0.9" keyTimes="0;1" dur="0.5s" begin="0.12s"/></rect><rect x="873" y="35" width="11" height="11" rx="2.5" fill="#161b22" opacity="0.9">
  <animate attributeName="opacity" values="0;0.9" keyTimes="0;1" dur="0.5s" begin="0.14s"/></rect><rect x="873" y="50" width="11" height="11" rx="2.5" fill="#161b22" opacity="0.9">
  <animate attributeName="opacity" values="0;0.9" keyTimes="0;1" dur="0.5s" begin="0.14s"/></rect><rect x="873" y="65" width="11" height="11" rx="2.5" fill="#161b22" opacity="0.9">
  <animate attributeName="opacity" values="0;0.9" keyTimes="0;1" dur="0.5s" begin="0.14s"/></rect><rect x="873" y="80" width="11" height="11" rx="2.5" fill="#161b22" opacity="0.9">
  <animate attributeName="opacity" values="0;0.9" keyTimes="0;1" dur="0.5s" begin="0.14s"/></rect><rect x="873" y="95" width="11" height="11" rx="2.5" fill="#161b22" opacity="0.9">
  <animate attributeName="opacity" values="0;0.9" keyTimes="0;1" dur="0.5s" begin="0.14s"/></rect><rect x="873" y="110" width="11" height="11" rx="2.5" fill="#006d32" opacity="0.9">
  <animate attributeName="opacity" values="0;0.9" keyTimes="0;1" dur="0.5s" begin="0.14s"/></rect><rect x="873" y="125" width="11" height="11" rx="2.5" fill="#161b22" opacity="0.9">
  <animate attributeName="opacity" values="0;0.9" keyTimes="0;1" dur="0.5s" begin="0.14s"/></rect><rect x="888" y="35" width="11" height="11" rx="2.5" fill="#161b22" opacity="0.9">
  <animate attributeName="opacity" values="0;0.9" keyTimes="0;1" dur="0.5s" begin="0.16s"/></rect><rect x="888" y="50" width="11" height="11" rx="2.5" fill="#161b22" opacity="0.9">
  <animate attributeName="opacity" values="0;0.9" keyTimes="0;1" dur="0.5s" begin="0.16s"/></rect><rect x="888" y="65" width="11" height="11" rx="2.5" fill="#161b22" opacity="0.9">
  <animate attributeName="opacity" values="0;0.9" keyTimes="0;1" dur="0.5s" begin="0.16s"/></rect><rect x="888" y="80" width="11" height="11" rx="2.5" fill="#161b22" opacity="0.9">
  <animate attributeName="opacity" values="0;0.9" keyTimes="0;1" dur="0.5s" begin="0.16s"/></rect><rect x="888" y="95" width="11" height="11" rx="2.5" fill="#161b22" opacity="0.9">
  <animate attributeName="opacity" values="0;0.9" keyTimes="0;1" dur="0.5s" begin="0.16s"/></rect><rect x="888" y="110" width="11" height="11" rx="2.5" fill="#161b22" opacity="0.9">
  <animate attributeName="opacity" values="0;0.9" keyTimes="0;1" dur="0.5s" begin="0.16s"/></rect><rect x="888" y="125" width="11" height="11" rx="2.5" fill="#0e4429" opacity="0.9">
  <animate attributeName="opacity" values="0;0.9" keyTimes="0;1" dur="0.5s" begin="0.16s"/></rect><rect x="903" y="35" width="11" height="11" rx="2.5" fill="#161b22" opacity="0.9">
  <animate attributeName="opacity" values="0;0.9" keyTimes="0;1" dur="0.5s" begin="0.18s"/></rect><rect x="903" y="50" width="11" height="11" rx="2.5" fill="#161b22" opacity="0.9">
  <animate attributeName="opacity" values="0;0.9" keyTimes="0;1" dur="0.5s" begin="0.18s"/></rect><rect x="903" y="65" width="11" height="11" rx="2.5" fill="#26a641" opacity="0.9">
  <animate attributeName="opacity" values="0;0.9" keyTimes="0;1" dur="0.5s" begin="0.18s"/></rect><rect x="903" y="80" width="11" height="11" rx="2.5" fill="#161b22" opacity="0.9">
  <animate attributeName="opacity" values="0;0.9" keyTimes="0;1" dur="0.5s" begin="0.18s"/></rect><rect x="903" y="95" width="11" height="11" rx="2.5" fill="#161b22" opacity="0.9">
  <animate attributeName="opacity" values="0;0.9" keyTimes="0;1" dur="0.5s" begin="0.18s"/></rect><rect x="903" y="110" width="11" height="11" rx="2.5" fill="#161b22" opacity="0.9">
  <animate attributeName="opacity" values="0;0.9" keyTimes="0;1" dur="0.5s" begin="0.18s"/></rect><rect x="903" y="125" width="11" height="11" rx="2.5" fill="#161b22" opacity="0.9">
  <animate attributeName="opacity" values="0;0.9" keyTimes="0;1" dur="0.5s" begin="0.18s"/></rect><rect x="918" y="35" width="11" height="11" rx="2.5" fill="#161b22" opacity="0.9">
  <animate attributeName="opacity" values="0;0.9" keyTimes="0;1" dur="0.5s" begin="0.20s"/></rect><rect x="918" y="50" width="11" height="11" rx="2.5" fill="#161b22" opacity="0.9">
  <animate attributeName="opacity" values="0;0.9" keyTimes="0;1" dur="0.5s" begin="0.20s"/></rect><rect x="918" y="65" width="11" height="11" rx="2.5" fill="#161b22" opacity="0.9">
  <animate attributeName="opacity" values="0;0.9" keyTimes="0;1" dur="0.5s" begin="0.20s"/></rect><rect x="918" y="80" width="11" height="11" rx="2.5" fill="#39d353" opacity="0.9">
  <animate attributeName="opacity" values="0;0.9" keyTimes="0;1" dur="0.5s" begin="0.20s"/></rect><rect x="918" y="95" width="11" height="11" rx="2.5" fill="#0e4429" opacity="0.9">
  <animate attributeName="opacity" values="0;0.9" keyTimes="0;1" dur="0.5s" begin="0.20s"/></rect><rect x="918" y="110" width="11" height="11" rx="2.5" fill="#161b22" opacity="0.9">
  <animate attributeName="opacity" values="0;0.9" keyTimes="0;1" dur="0.5s" begin="0.20s"/></rect><rect x="918" y="125" width="11" height="11" rx="2.5" fill="#161b22" opacity="0.9">
  <animate attributeName="opacity" values="0;0.9" keyTimes="0;1" dur="0.5s" begin="0.20s"/></rect><rect x="933" y="35" width="11" height="11" rx="2.5" fill="#161b22" opacity="0.9">
  <animate attributeName="opacity" values="0;0.9" keyTimes="0;1" dur="0.5s" begin="0.22s"/></rect><rect x="933" y="50" width="11" height="11" rx="2.5" fill="#161b22" opacity="0.9">
  <animate attributeName="opacity" values="0;0.9" keyTimes="0;1" dur="0.5s" begin="0.22s"/></rect><rect x="933" y="65" width="11" height="11" rx="2.5" fill="#161b22" opacity="0.9">
  <animate attributeName="opacity" values="0;0.9" keyTimes="0;1" dur="0.5s" begin="0.22s"/></rect><rect x="933" y="80" width="11" height="11" rx="2.5" fill="#39d353" opacity="0.9">
  <animate attributeName="opacity" values="0;0.9" keyTimes="0;1" dur="0.5s" begin="0.22s"/></rect><rect x="933" y="95" width="11" height="11" rx="2.5" fill="#0e4429" opacity="0.9">
  <animate attributeName="opacity" values="0;0.9" keyTimes="0;1" dur="0.5s" begin="0.22s"/></rect><rect x="933" y="110" width="11" height="11" rx="2.5" fill="#26a641" opacity="0.9">
  <animate attributeName="opacity" values="0;0.9" keyTimes="0;1" dur="0.5s" begin="0.22s"/></rect><rect x="933" y="125" width="11" height="11" rx="2.5" fill="#161b22" opacity="0.9">
  <animate attributeName="opacity" values="0;0.9" keyTimes="0;1" dur="0.5s" begin="0.22s"/></rect><rect x="948" y="35" width="11" height="11" rx="2.5" fill="#161b22" opacity="0.9">
  <animate attributeName="opacity" values="0;0.9" keyTimes="0;1" dur="0.5s" begin="0.24s"/></rect><rect x="948" y="50" width="11" height="11" rx="2.5" fill="#161b22" opacity="0.9">
  <animate attributeName="opacity" values="0;0.9" keyTimes="0;1" dur="0.5s" begin="0.24s"/></rect><rect x="948" y="65" width="11" height="11" rx="2.5" fill="#161b22" opacity="0.9">
  <animate attributeName="opacity" values="0;0.9" keyTimes="0;1" dur="0.5s" begin="0.24s"/></rect><rect x="948" y="80" width="11" height="11" rx="2.5" fill="#161b22" opacity="0.9">
  <animate attributeName="opacity" values="0;0.9" keyTimes="0;1" dur="0.5s" begin="0.24s"/></rect><rect x="948" y="95" width="11" height="11" rx="2.5" fill="#161b22" opacity="0.9">
  <animate attributeName="opacity" values="0;0.9" keyTimes="0;1" dur="0.5s" begin="0.24s"/></rect><rect x="948" y="110" width="11" height="11" rx="2.5" fill="#161b22" opacity="0.9">
  <animate attributeName="opacity" values="0;0.9" keyTimes="0;1" dur="0.5s" begin="0.24s"/></rect><rect x="948" y="125" width="11" height="11" rx="2.5" fill="#161b22" opacity="0.9">
  <animate attributeName="opacity" values="0;0.9" keyTimes="0;1" dur="0.5s" begin="0.24s"/></rect><rect x="963" y="35" width="11" height="11" rx="2.5" fill="#161b22" opacity="0.9">
  <animate attributeName="opacity" values="0;0.9" keyTimes="0;1" dur="0.5s" begin="0.26s"/></rect><rect x="963" y="50" width="11" height="11" rx="2.5" fill="#161b22" opacity="0.9">
  <animate attributeName="opacity" values="0;0.9" keyTimes="0;1" dur="0.5s" begin="0.26s"/></rect><rect x="963" y="65" width="11" height="11" rx="2.5" fill="#161b22" opacity="0.9">
  <animate attributeName="opacity" values="0;0.9" keyTimes="0;1" dur="0.5s" begin="0.26s"/></rect><rect x="963" y="80" width="11" height="11" rx="2.5" fill="#161b22" opacity="0.9">
  <animate attributeName="opacity" values="0;0.9" keyTimes="0;1" dur="0.5s" begin="0.26s"/></rect><rect x="963" y="95" width="11" height="11" rx="2.5" fill="#161b22" opacity="0.9">
  <animate attributeName="opacity" values="0;0.9" keyTimes="0;1" dur="0.5s" begin="0.26s"/></rect><rect x="963" y="110" width="11" height="11" rx="2.5" fill="#161b22" opacity="0.9">
  <animate attributeName="opacity" values="0;0.9" keyTimes="0;1" dur="0.5s" begin="0.26s"/></rect><rect x="963" y="125" width="11" height="11" rx="2.5" fill="#006d32" opacity="0.9">
  <animate attributeName="opacity" values="0;0.9" keyTimes="0;1" dur="0.5s" begin="0.26s"/></rect><rect x="978" y="35" width="11" height="11" rx="2.5" fill="#161b22" opacity="0.9">
  <animate attributeName="opacity" values="0;0.9" keyTimes="0;1" dur="0.5s" begin="0.28s"/></rect><rect x="978" y="50" width="11" height="11" rx="2.5" fill="#161b22" opacity="0.9">
  <animate attributeName="opacity" values="0;0.9" keyTimes="0;1" dur="0.5s" begin="0.28s"/></rect><rect x="978" y="65" width="11" height="11" rx="2.5" fill="#161b22" opacity="0.9">
  <animate attributeName="opacity" values="0;0.9" keyTimes="0;1" dur="0.5s" begin="0.28s"/></rect><rect x="978" y="80" width="11" height="11" rx="2.5" fill="#161b22" opacity="0.9">
  <animate attributeName="opacity" values="0;0.9" keyTimes="0;1" dur="0.5s" begin="0.28s"/></rect><rect x="978" y="95" width="11" height="11" rx="2.5" fill="#161b22" opacity="0.9">
  <animate attributeName="opacity" values="0;0.9" keyTimes="0;1" dur="0.5s" begin="0.28s"/></rect><rect x="978" y="110" width="11" height="11" rx="2.5" fill="#161b22" opacity="0.9">
  <animate attributeName="opacity" values="0;0.9" keyTimes="0;1" dur="0.5s" begin="0.28s"/></rect><rect x="978" y="125" width="11" height="11" rx="2.5" fill="#161b22" opacity="0.9">
  <animate attributeName="opacity" values="0;0.9" keyTimes="0;1" dur="0.5s" begin="0.28s"/></rect><rect x="993" y="35" width="11" height="11" rx="2.5" fill="#161b22" opacity="0.9">
  <animate attributeName="opacity" values="0;0.9" keyTimes="0;1" dur="0.5s" begin="0.30s"/></rect><rect x="993" y="50" width="11" height="11" rx="2.5" fill="#161b22" opacity="0.9">
  <animate attributeName="opacity" values="0;0.9" keyTimes="0;1" dur="0.5s" begin="0.30s"/></rect><rect x="993" y="65" width="11" height="11" rx="2.5" fill="#161b22" opacity="0.9">
  <animate attributeName="opacity" values="0;0.9" keyTimes="0;1" dur="0.5s" begin="0.30s"/></rect><rect x="993" y="80" width="11" height="11" rx="2.5" fill="#161b22" opacity="0.9">
  <animate attributeName="opacity" values="0;0.9" keyTimes="0;1" dur="0.5s" begin="0.30s"/></rect><rect x="993" y="95" width="11" height="11" rx="2.5" fill="#161b22" opacity="0.9">
  <animate attributeName="opacity" values="0;0.9" keyTimes="0;1" dur="0.5s" begin="0.30s"/></rect><rect x="993" y="110" width="11" height="11" rx="2.5" fill="#161b22" opacity="0.9">
  <animate attributeName="opacity" values="0;0.9" keyTimes="0;1" dur="0.5s" begin="0.30s"/></rect><rect x="993" y="125" width="11" height="11" rx="2.5" fill="#161b22" opacity="0.9">
  <animate attributeName="opacity" values="0;0.9" keyTimes="0;1" dur="0.5s" begin="0.30s"/></rect><rect x="1008" y="35" width="11" height="11" rx="2.5" fill="#161b22" opacity="0.9">
  <animate attributeName="opacity" values="0;0.9" keyTimes="0;1" dur="0.5s" begin="0.32s"/></rect><rect x="1008" y="50" width="11" height="11" rx="2.5" fill="#39d353" opacity="0.9">
  <animate attributeName="opacity" values="0;0.9" keyTimes="0;1" dur="0.5s" begin="0.32s"/></rect><rect x="1008" y="65" width="11" height="11" rx="2.5" fill="#161b22" opacity="0.9">
  <animate attributeName="opacity" values="0;0.9" keyTimes="0;1" dur="0.5s" begin="0.32s"/></rect><rect x="1008" y="80" width="11" height="11" rx="2.5" fill="#161b22" opacity="0.9">
  <animate attributeName="opacity" values="0;0.9" keyTimes="0;1" dur="0.5s" begin="0.32s"/></rect><rect x="1008" y="95" width="11" height="11" rx="2.5" fill="#161b22" opacity="0.9">
  <animate attributeName="opacity" values="0;0.9" keyTimes="0;1" dur="0.5s" begin="0.32s"/></rect><rect x="1008" y="110" width="11" height="11" rx="2.5" fill="#161b22" opacity="0.9">
  <animate attributeName="opacity" values="0;0.9" keyTimes="0;1" dur="0.5s" begin="0.32s"/></rect><rect x="1008" y="125" width="11" height="11" rx="2.5" fill="#39d353" opacity="0.9">
  <animate attributeName="opacity" values="0;0.9" keyTimes="0;1" dur="0.5s" begin="0.32s"/></rect><rect x="1023" y="35" width="11" height="11" rx="2.5" fill="#26a641" opacity="0.9">
  <animate attributeName="opacity" values="0;0.9" keyTimes="0;1" dur="0.5s" begin="0.34s"/></rect><rect x="1023" y="50" width="11" height="11" rx="2.5" fill="#39d353" opacity="0.9">
  <animate attributeName="opacity" values="0;0.9" keyTimes="0;1" dur="0.5s" begin="0.34s"/></rect><rect x="1023" y="65" width="11" height="11" rx="2.5" fill="#39d353" opacity="0.9">
  <animate attributeName="opacity" values="0;0.9" keyTimes="0;1" dur="0.5s" begin="0.34s"/></rect><rect x="1023" y="80" width="11" height="11" rx="2.5" fill="#39d353" opacity="0.9">
  <animate attributeName="opacity" values="0;0.9" keyTimes="0;1" dur="0.5s" begin="0.34s"/></rect><rect x="1023" y="95" width="11" height="11" rx="2.5" fill="#161b22" opacity="0.9">
  <animate attributeName="opacity" values="0;0.9" keyTimes="0;1" dur="0.5s" begin="0.34s"/></rect><rect x="1023" y="110" width="11" height="11" rx="2.5" fill="#39d353" opacity="0.9">
  <animate attributeName="opacity" values="0;0.9" keyTimes="0;1" dur="0.5s" begin="0.34s"/></rect><rect x="1023" y="125" width="11" height="11" rx="2.5" fill="#26a641" opacity="0.9">
  <animate attributeName="opacity" values="0;0.9" keyTimes="0;1" dur="0.5s" begin="0.34s"/></rect><rect x="1038" y="35" width="11" height="11" rx="2.5" fill="#39d353" opacity="0.9">
  <animate attributeName="opacity" values="0;0.9" keyTimes="0;1" dur="0.5s" begin="0.36s"/></rect><rect x="1038" y="50" width="11" height="11" rx="2.5" fill="#26a641" opacity="0.9">
  <animate attributeName="opacity" values="0;0.9" keyTimes="0;1" dur="0.5s" begin="0.36s"/></rect><rect x="1038" y="65" width="11" height="11" rx="2.5" fill="#39d353" opacity="0.9">
  <animate attributeName="opacity" values="0;0.9" keyTimes="0;1" dur="0.5s" begin="0.36s"/></rect><rect x="1038" y="80" width="11" height="11" rx="2.5" fill="#161b22" opacity="0.9">
  <animate attributeName="opacity" values="0;0.9" keyTimes="0;1" dur="0.5s" begin="0.36s"/></rect><rect x="1038" y="95" width="11" height="11" rx="2.5" fill="#39d353" opacity="0.9">
  <animate attributeName="opacity" values="0;0.9" keyTimes="0;1" dur="0.5s" begin="0.36s"/></rect><rect x="1038" y="110" width="11" height="11" rx="2.5" fill="#39d353" opacity="0.9">
  <animate attributeName="opacity" values="0;0.9" keyTimes="0;1" dur="0.5s" begin="0.36s"/></rect><rect x="1038" y="125" width="11" height="11" rx="2.5" fill="#39d353" opacity="0.9">
  <animate attributeName="opacity" values="0;0.9" keyTimes="0;1" dur="0.5s" begin="0.36s"/></rect><rect x="1053" y="35" width="11" height="11" rx="2.5" fill="#26a641" opacity="0.9">
  <animate attributeName="opacity" values="0;0.9" keyTimes="0;1" dur="0.5s" begin="0.38s"/></rect><rect x="1053" y="50" width="11" height="11" rx="2.5" fill="#39d353" opacity="0.9">
  <animate attributeName="opacity" values="0;0.9" keyTimes="0;1" dur="0.5s" begin="0.38s"/></rect><rect x="1053" y="65" width="11" height="11" rx="2.5" fill="#39d353" opacity="0.9">
  <animate attributeName="opacity" values="0;0.9" keyTimes="0;1" dur="0.5s" begin="0.38s"/></rect><rect x="1053" y="80" width="11" height="11" rx="2.5" fill="#26a641" opacity="0.9">
  <animate attributeName="opacity" values="0;0.9" keyTimes="0;1" dur="0.5s" begin="0.38s"/></rect><rect x="1053" y="95" width="11" height="11" rx="2.5" fill="#39d353" opacity="0.9">
  <animate attributeName="opacity" values="0;0.9" keyTimes="0;1" dur="0.5s" begin="0.38s"/></rect><rect x="1053" y="110" width="11" height="11" rx="2.5" fill="#39d353" opacity="0.9">
  <animate attributeName="opacity" values="0;0.9" keyTimes="0;1" dur="0.5s" begin="0.38s"/></rect><rect x="1053" y="125" width="11" height="11" rx="2.5" fill="#39d353" opacity="0.9">
  <animate attributeName="opacity" values="0;0.9" keyTimes="0;1" dur="0.5s" begin="0.38s"/></rect><rect x="1068" y="35" width="11" height="11" rx="2.5" fill="#161b22" opacity="0.9">
  <animate attributeName="opacity" values="0;0.9" keyTimes="0;1" dur="0.5s" begin="0.40s"/></rect><rect x="1068" y="50" width="11" height="11" rx="2.5" fill="#39d353" opacity="0.9">
  <animate attributeName="opacity" values="0;0.9" keyTimes="0;1" dur="0.5s" begin="0.40s"/></rect><rect x="1068" y="65" width="11" height="11" rx="2.5" fill="#006d32" opacity="0.9">
  <animate attributeName="opacity" values="0;0.9" keyTimes="0;1" dur="0.5s" begin="0.40s"/></rect><rect x="1068" y="80" width="11" height="11" rx="2.5" fill="#26a641" opacity="0.9">
  <animate attributeName="opacity" values="0;0.9" keyTimes="0;1" dur="0.5s" begin="0.40s"/></rect><rect x="1068" y="95" width="11" height="11" rx="2.5" fill="#161b22" opacity="0.9">
  <animate attributeName="opacity" values="0;0.9" keyTimes="0;1" dur="0.5s" begin="0.40s"/></rect><rect x="1068" y="110" width="11" height="11" rx="2.5" fill="#39d353" opacity="0.9">
  <animate attributeName="opacity" values="0;0.9" keyTimes="0;1" dur="0.5s" begin="0.40s"/></rect><rect x="1068" y="125" width="11" height="11" rx="2.5" fill="#39d353" opacity="0.9">
  <animate attributeName="opacity" values="0;0.9" keyTimes="0;1" dur="0.5s" begin="0.40s"/></rect><rect x="1083" y="35" width="11" height="11" rx="2.5" fill="#39d353" opacity="0.9">
  <animate attributeName="opacity" values="0;0.9" keyTimes="0;1" dur="0.5s" begin="0.42s"/></rect><rect x="1083" y="50" width="11" height="11" rx="2.5" fill="#39d353" opacity="0.9">
  <animate attributeName="opacity" values="0;0.9" keyTimes="0;1" dur="0.5s" begin="0.42s"/></rect><rect x="1083" y="65" width="11" height="11" rx="2.5" fill="#26a641" opacity="0.9">
  <animate attributeName="opacity" values="0;0.9" keyTimes="0;1" dur="0.5s" begin="0.42s"/></rect><rect x="1083" y="80" width="11" height="11" rx="2.5" fill="#39d353" opacity="0.9">
  <animate attributeName="opacity" values="0;0.9" keyTimes="0;1" dur="0.5s" begin="0.42s"/></rect><rect x="1083" y="95" width="11" height="11" rx="2.5" fill="#39d353" opacity="0.9">
  <animate attributeName="opacity" values="0;0.9" keyTimes="0;1" dur="0.5s" begin="0.42s"/></rect><rect x="1083" y="110" width="11" height="11" rx="2.5" fill="#39d353" opacity="0.9">
  <animate attributeName="opacity" values="0;0.9" keyTimes="0;1" dur="0.5s" begin="0.42s"/></rect><rect x="1083" y="125" width="11" height="11" rx="2.5" fill="#39d353" opacity="0.9">
  <animate attributeName="opacity" values="0;0.9" keyTimes="0;1" dur="0.5s" begin="0.42s"/></rect><rect x="1098" y="35" width="11" height="11" rx="2.5" fill="#39d353" opacity="0.9">
  <animate attributeName="opacity" values="0;0.9" keyTimes="0;1" dur="0.5s" begin="0.44s"/></rect><rect x="1098" y="50" width="11" height="11" rx="2.5" fill="#39d353" opacity="0.9">
  <animate attributeName="opacity" values="0;0.9" keyTimes="0;1" dur="0.5s" begin="0.44s"/></rect><rect x="1098" y="65" width="11" height="11" rx="2.5" fill="#39d353" opacity="0.9">
  <animate attributeName="opacity" values="0;0.9" keyTimes="0;1" dur="0.5s" begin="0.44s"/></rect><rect x="1098" y="80" width="11" height="11" rx="2.5" fill="#39d353" opacity="0.9">
  <animate attributeName="opacity" values="0;0.9" keyTimes="0;1" dur="0.5s" begin="0.44s"/></rect><rect x="1098" y="95" width="11" height="11" rx="2.5" fill="#39d353" opacity="0.9">
  <animate attributeName="opacity" values="0;0.9" keyTimes="0;1" dur="0.5s" begin="0.44s"/></rect><rect x="1098" y="110" width="11" height="11" rx="2.5" fill="#26a641" opacity="0.9">
  <animate attributeName="opacity" values="0;0.9" keyTimes="0;1" dur="0.5s" begin="0.44s"/></rect><rect x="1098" y="125" width="11" height="11" rx="2.5" fill="#39d353" opacity="0.9">
  <animate attributeName="opacity" values="0;0.9" keyTimes="0;1" dur="0.5s" begin="0.44s"/></rect><rect x="1113" y="35" width="11" height="11" rx="2.5" fill="#39d353" opacity="0.9">
  <animate attributeName="opacity" values="0;0.9" keyTimes="0;1" dur="0.5s" begin="0.46s"/></rect><rect x="1113" y="50" width="11" height="11" rx="2.5" fill="#39d353" opacity="0.9">
  <animate attributeName="opacity" values="0;0.9" keyTimes="0;1" dur="0.5s" begin="0.46s"/></rect><rect x="1113" y="65" width="11" height="11" rx="2.5" fill="#39d353" opacity="0.9">
  <animate attributeName="opacity" values="0;0.9" keyTimes="0;1" dur="0.5s" begin="0.46s"/></rect><rect x="1113" y="80" width="11" height="11" rx="2.5" fill="#39d353" opacity="0.9">
  <animate attributeName="opacity" values="0;0.9" keyTimes="0;1" dur="0.5s" begin="0.46s"/></rect><rect x="1113" y="95" width="11" height="11" rx="2.5" fill="#39d353" opacity="0.9">
  <animate attributeName="opacity" values="0;0.9" keyTimes="0;1" dur="0.5s" begin="0.46s"/></rect><rect x="1113" y="110" width="11" height="11" rx="2.5" fill="#39d353" opacity="0.9">
  <animate attributeName="opacity" values="0;0.9" keyTimes="0;1" dur="0.5s" begin="0.46s"/></rect><rect x="1113" y="125" width="11" height="11" rx="2.5" fill="#161b22" opacity="0.9">
  <animate attributeName="opacity" values="0;0.9" keyTimes="0;1" dur="0.5s" begin="0.46s"/></rect><rect x="1128" y="35" width="11" height="11" rx="2.5" fill="#39d353" opacity="0.9">
  <animate attributeName="opacity" values="0;0.9" keyTimes="0;1" dur="0.5s" begin="0.48s"/></rect><rect x="1128" y="50" width="11" height="11" rx="2.5" fill="#39d353" opacity="0.9">
  <animate attributeName="opacity" values="0;0.9" keyTimes="0;1" dur="0.5s" begin="0.48s"/></rect><rect x="1128" y="65" width="11" height="11" rx="2.5" fill="#39d353" opacity="0.9">
  <animate attributeName="opacity" values="0;0.9" keyTimes="0;1" dur="0.5s" begin="0.48s"/></rect><rect x="1128" y="80" width="11" height="11" rx="2.5" fill="#39d353" opacity="0.9">
  <animate attributeName="opacity" values="0;0.9" keyTimes="0;1" dur="0.5s" begin="0.48s"/></rect><rect x="1128" y="95" width="11" height="11" rx="2.5" fill="#39d353" opacity="0.9">
  <animate attributeName="opacity" values="0;0.9" keyTimes="0;1" dur="0.5s" begin="0.48s"/></rect><rect x="1128" y="110" width="11" height="11" rx="2.5" fill="#006d32" opacity="0.9">
  <animate attributeName="opacity" values="0;0.9" keyTimes="0;1" dur="0.5s" begin="0.48s"/></rect><rect x="1128" y="125" width="11" height="11" rx="2.5" fill="#39d353" opacity="0.9">
  <animate attributeName="opacity" values="0;0.9" keyTimes="0;1" dur="0.5s" begin="0.48s"/></rect><rect x="1143" y="35" width="11" height="11" rx="2.5" fill="#006d32" opacity="0.9">
  <animate attributeName="opacity" values="0;0.9" keyTimes="0;1" dur="0.5s" begin="0.50s"/></rect><rect x="1143" y="50" width="11" height="11" rx="2.5" fill="#26a641" opacity="0.9">
  <animate attributeName="opacity" values="0;0.9" keyTimes="0;1" dur="0.5s" begin="0.50s"/></rect><rect x="1143" y="65" width="11" height="11" rx="2.5" fill="#26a641" opacity="0.9">
  <animate attributeName="opacity" values="0;0.9" keyTimes="0;1" dur="0.5s" begin="0.50s"/></rect><rect x="1143" y="80" width="11" height="11" rx="2.5" fill="#39d353" opacity="0.9">
  <animate attributeName="opacity" values="0;0.9" keyTimes="0;1" dur="0.5s" begin="0.50s"/></rect><rect x="1143" y="95" width="11" height="11" rx="2.5" fill="#0e4429" opacity="0.9">
  <animate attributeName="opacity" values="0;0.9" keyTimes="0;1" dur="0.5s" begin="0.50s"/></rect><rect x="1143" y="110" width="11" height="11" rx="2.5" fill="#161b22" opacity="0.9">
  <animate attributeName="opacity" values="0;0.9" keyTimes="0;1" dur="0.5s" begin="0.50s"/></rect><rect x="1143" y="125" width="11" height="11" rx="2.5" fill="#161b22" opacity="0.9">
  <animate attributeName="opacity" values="0;0.9" keyTimes="0;1" dur="0.5s" begin="0.50s"/></rect><rect x="1158" y="35" width="11" height="11" rx="2.5" fill="#161b22" opacity="0.9">
  <animate attributeName="opacity" values="0;0.9" keyTimes="0;1" dur="0.5s" begin="0.52s"/></rect><rect x="1158" y="50" width="11" height="11" rx="2.5" fill="#26a641" opacity="0.9">
  <animate attributeName="opacity" values="0;0.9" keyTimes="0;1" dur="0.5s" begin="0.52s"/></rect><rect x="1158" y="65" width="11" height="11" rx="2.5" fill="#39d353" opacity="0.9">
  <animate attributeName="opacity" values="0;0.9" keyTimes="0;1" dur="0.5s" begin="0.52s"/></rect><rect x="1158" y="80" width="11" height="11" rx="2.5" fill="#39d353" opacity="0.9">
  <animate attributeName="opacity" values="0;0.9" keyTimes="0;1" dur="0.5s" begin="0.52s"/></rect><rect x="1158" y="95" width="11" height="11" rx="2.5" fill="#39d353" opacity="0.9">
  <animate attributeName="opacity" values="0;0.9" keyTimes="0;1" dur="0.5s" begin="0.52s"/></rect><rect x="1158" y="110" width="11" height="11" rx="2.5" fill="#39d353" opacity="0.9">
  <animate attributeName="opacity" values="0;0.9" keyTimes="0;1" dur="0.5s" begin="0.52s"/></rect><rect x="1158" y="125" width="11" height="11" rx="2.5" fill="#39d353" opacity="0.9">
  <animate attributeName="opacity" values="0;0.9" keyTimes="0;1" dur="0.5s" begin="0.52s"/></rect><rect x="1173" y="35" width="11" height="11" rx="2.5" fill="#006d32" opacity="0.9">
  <animate attributeName="opacity" values="0;0.9" keyTimes="0;1" dur="0.5s" begin="0.54s"/></rect><rect x="1173" y="50" width="11" height="11" rx="2.5" fill="#39d353" opacity="0.9">
  <animate attributeName="opacity" values="0;0.9" keyTimes="0;1" dur="0.5s" begin="0.54s"/></rect><rect x="1173" y="65" width="11" height="11" rx="2.5" fill="#161b22" opacity="0.9">
  <animate attributeName="opacity" values="0;0.9" keyTimes="0;1" dur="0.5s" begin="0.54s"/></rect><rect x="1173" y="80" width="11" height="11" rx="2.5" fill="#26a641" opacity="0.9">
  <animate attributeName="opacity" values="0;0.9" keyTimes="0;1" dur="0.5s" begin="0.54s"/></rect><rect x="1173" y="95" width="11" height="11" rx="2.5" fill="#39d353" opacity="0.9">
  <animate attributeName="opacity" values="0;0.9" keyTimes="0;1" dur="0.5s" begin="0.54s"/></rect><rect x="1173" y="110" width="11" height="11" rx="2.5" fill="#0e4429" opacity="0.9">
  <animate attributeName="opacity" values="0;0.9" keyTimes="0;1" dur="0.5s" begin="0.54s"/></rect><rect x="1173" y="125" width="11" height="11" rx="2.5" fill="#39d353" opacity="0.9">
  <animate attributeName="opacity" values="0;0.9" keyTimes="0;1" dur="0.5s" begin="0.54s"/></rect><rect x="1188" y="35" width="11" height="11" rx="2.5" fill="#39d353" opacity="0.9">
  <animate attributeName="opacity" values="0;0.9" keyTimes="0;1" dur="0.5s" begin="0.56s"/></rect><rect x="1188" y="50" width="11" height="11" rx="2.5" fill="#39d353" opacity="0.9">
  <animate attributeName="opacity" values="0;0.9" keyTimes="0;1" dur="0.5s" begin="0.56s"/></rect><rect x="1188" y="65" width="11" height="11" rx="2.5" fill="#39d353" opacity="0.9">
  <animate attributeName="opacity" values="0;0.9" keyTimes="0;1" dur="0.5s" begin="0.56s"/></rect><rect x="1188" y="80" width="11" height="11" rx="2.5" fill="#39d353" opacity="0.9">
  <animate attributeName="opacity" values="0;0.9" keyTimes="0;1" dur="0.5s" begin="0.56s"/></rect><rect x="1188" y="95" width="11" height="11" rx="2.5" fill="#161b22" opacity="0.9">
  <animate attributeName="opacity" values="0;0.9" keyTimes="0;1" dur="0.5s" begin="0.56s"/></rect><rect x="1188" y="110" width="11" height="11" rx="2.5" fill="#39d353" opacity="0.9">
  <animate attributeName="opacity" values="0;0.9" keyTimes="0;1" dur="0.5s" begin="0.56s"/></rect><rect x="1188" y="125" width="11" height="11" rx="2.5" fill="#39d353" opacity="0.9">
  <animate attributeName="opacity" values="0;0.9" keyTimes="0;1" dur="0.5s" begin="0.56s"/></rect><rect x="1203" y="35" width="11" height="11" rx="2.5" fill="#39d353" opacity="0.9">
  <animate attributeName="opacity" values="0;0.9" keyTimes="0;1" dur="0.5s" begin="0.58s"/></rect><rect x="1203" y="50" width="11" height="11" rx="2.5" fill="#39d353" opacity="0.9">
  <animate attributeName="opacity" values="0;0.9" keyTimes="0;1" dur="0.5s" begin="0.58s"/></rect><rect x="1203" y="65" width="11" height="11" rx="2.5" fill="#39d353" opacity="0.9">
  <animate attributeName="opacity" values="0;0.9" keyTimes="0;1" dur="0.5s" begin="0.58s"/></rect></g>
<text x="36" y="66" font-family="-apple-system, BlinkMacSystemFont, 'Segoe UI', Helvetica, Arial, sans-serif" font-size="38" font-weight="700" fill="#f0f6fc">Binyam Mamo</text>
<text x="36" y="94" font-family="-apple-system, BlinkMacSystemFont, 'Segoe UI', Helvetica, Arial, sans-serif" font-size="16" fill="#7ee787">Backend and applied AI</text>
<text x="36" y="120" font-family="ui-monospace, SFMono-Regular, Menlo, Consolas, monospace" font-size="12.5" fill="#9198a1">Computer Engineering, University of Dubai  ·  Dubai, UAE</text>
<text x="36" y="142" font-family="ui-monospace, SFMono-Regular, Menlo, Consolas, monospace" font-size="12.5" fill="#c9d1d9">binyammamo.vercel.app &#8599;</text>
</svg>
